<?xml version="1.0" standalone="no"?>
<!DOCTYPE svg PUBLIC "-//W3C//DTD SVG 20010904//EN"
 "http://www.w3.org/TR/2001/REC-SVG-20010904/DTD/svg10.dtd">
<svg version="1.0" xmlns="http://www.w3.org/2000/svg"
 width="540.000000pt" height="540.000000pt" viewBox="0 0 540.000000 540.000000"
 preserveAspectRatio="xMidYMid meet">
<metadata>
Created by potrace 1.11, written by Peter Selinger 2001-2013
</metadata>
<g transform="translate(0.000000,540.000000) scale(0.100000,-0.100000)"
fill="#000000" stroke="none">
<path d="M1649 4508 c-1 -249 -2 -464 -4 -478 -3 -33 -14 -110 -19 -135 -14
-74 -62 -222 -76 -238 -6 -7 -278 -13 -349 -8 -14 1 -471 450 -471 462 0 4 77
83 170 177 94 94 170 173 170 175 0 3 -182 5 -405 5 l-405 0 -1 -72 c-4 -535
0 -775 16 -841 9 -38 18 -79 21 -90 4 -20 11 -54 19 -90 40 -186 47 -243 50
-385 4 -180 -3 -242 -50 -440 -50 -209 -56 -263 -56 -471 0 -243 21 -331 116
-479 89 -138 237 -250 403 -304 l52 -18 0 -374 0 -374 -32 -1 c-18 0 -58 0
-88 0 -66 0 -154 -16 -194 -36 -84 -43 -156 -143 -174 -241 l-9 -52 2218 0
2219 0 1 368 c0 202 2 381 4 397 1 17 6 73 9 125 15 202 69 496 126 690 6 19
13 47 15 62 3 16 12 56 19 90 8 35 22 113 31 173 9 61 19 124 22 140 3 17 8
297 10 623 l4 592 -23 46 c-29 60 -86 108 -146 125 -37 11 -189 14 -747 13
l-700 0 -44 -23 c-61 -32 -107 -83 -126 -142 -15 -44 -16 -108 -12 -592 2
-298 7 -555 10 -572 3 -16 8 -56 11 -87 l7 -58 -58 -1 c-162 -2 -375 0 -378 3
-3 2 -5 141 -6 309 -1 333 -9 410 -59 559 -47 143 -98 241 -192 371 -111 154
-167 285 -225 524 -4 17 -8 254 -10 528 l-4 497 -330 0 -329 0 -1 -452z m-897
-655 c73 -72 150 -149 170 -170 l37 -38 -344 0 c-190 0 -345 2 -345 5 0 11
333 341 341 338 5 -2 68 -62 141 -135z"/>
</g>
</svg>
